<?xml version="1.0" encoding="UTF-8"?><svg id="Layer_2" xmlns="http://www.w3.org/2000/svg" viewBox="0 0 23.99 24"><defs><style>.cls-1{fill:#cec6cc;}</style></defs><g id="Layer_1-2"><path class="cls-1" d="M23.99,15.88c0-2.95-1.94-5.44-4.98-6.56,.98-.99,1.59-2.35,1.59-3.85,0-3.01-2.45-5.47-5.47-5.47-2.47,0-4.57,1.64-5.24,3.97-.28-.05-.57-.09-.86-.09-3.01,0-5.47,2.45-5.47,5.47,0,1.54,.65,2.93,1.68,3.92-3.18,1.18-5.25,3.67-5.25,6.49,0,1.2,.33,2.12,1.01,2.8,1.45,1.45,4.21,1.45,7.41,1.44h1.57c2.98,0,5.52-.07,6.89-1.44,.61-.61,.92-1.43,.98-2.46,3.17-.09,6.12-.61,6.12-4.22ZM15.14,1.11c2.4,0,4.36,1.95,4.36,4.36s-1.95,4.36-4.36,4.36c-.23,0-.45-.03-.67-.06,.01-.14,.04-.27,.04-.42,0-2.33-1.48-4.31-3.54-5.1,.54-1.84,2.21-3.14,4.17-3.14ZM4.68,9.35c0-2.4,1.95-4.36,4.36-4.36s4.36,1.95,4.36,4.36-1.95,4.36-4.36,4.36-4.36-1.96-4.36-4.36Zm11.42,12.43c-1.13,1.12-3.67,1.12-6.62,1.12h-1.07c-2.96,0-5.49,0-6.62-1.12-.46-.46-.68-1.12-.68-2.01,0-2.54,2.1-4.78,5.24-5.68,.8,.45,1.71,.74,2.69,.74,1.05,0,2.02-.31,2.85-.83v.02c3.02,.84,4.89,3.04,4.89,5.75,0,.89-.22,1.55-.68,2.01Zm1.72-2.79c-.31-2.61-2.14-4.77-4.91-5.79,.64-.64,1.1-1.45,1.35-2.34,.29,.05,.58,.08,.87,.08,1.04,0,2-.31,2.82-.81,3.04,.83,4.92,3.03,4.92,5.76,0,2.44-1.72,3.01-5.06,3.11Z"/></g></svg>