<?xml version="1.0" encoding="utf-8"?>
<!-- Generator: Adobe Illustrator 26.3.1, SVG Export Plug-In . SVG Version: 6.00 Build 0)  -->
<svg version="1.1" id="Layer_1" xmlns="http://www.w3.org/2000/svg" xmlns:xlink="http://www.w3.org/1999/xlink" x="0px" y="0px"
	 viewBox="0 0 42.7 32" xml:space="preserve">
<style type="text/css">
	.st0{fill:#E52329;}
	.st1{fill:#FCD000;}
	.st2{fill:#8A1E1F;}
	.st3{fill:#9B6E12;}
	.st4{fill:#F29912;}
	.st5{fill:url(#SVGID_1_);}
	.st6{fill:url(#SVGID_00000016054949501818241960000014212806288693791637_);}
	.st7{fill:url(#SVGID_00000049926386000383734420000016645985450829240988_);}
	.st8{fill:url(#SVGID_00000124156073337604403590000018255470172908259503_);}
	.st9{fill:#FEFEFE;}
	.st10{fill:url(#SVGID_00000152228143576361691380000000076516770620433576_);}
	.st11{fill:url(#SVGID_00000047053770066150621020000014380071092798001549_);}
	.st12{fill:url(#SVGID_00000168800707767894731640000007321596034556302993_);}
	.st13{fill:url(#SVGID_00000175311712076722135130000014137639300375050674_);}
	.st14{fill:url(#SVGID_00000150070616862106728240000001550226596123768243_);}
	.st15{fill:#63C2D0;}
	.st16{fill:#A4D7D4;}
	.st17{fill:#E9668B;}
	.st18{fill:url(#SVGID_00000135662889542090648720000009567593447898942854_);}
	.st19{fill:url(#SVGID_00000008827898107579132410000016159180810085211828_);}
	.st20{fill:url(#SVGID_00000183248342166131618420000010453655754102922935_);}
	.st21{fill:url(#SVGID_00000000900858874460844720000011589826631204995494_);}
	.st22{fill:url(#SVGID_00000145058711178094070150000016815263779261718682_);}
	.st23{fill:url(#SVGID_00000054985224633422149420000004093047442537212593_);}
	.st24{fill:url(#SVGID_00000139999195582942870490000008646863680719965373_);}
	.st25{fill:url(#SVGID_00000026841673304687467040000006766674649420577944_);}
	.st26{fill:url(#SVGID_00000155862514618766698310000012209273248944903813_);}
	.st27{fill:url(#SVGID_00000092433420241679471330000003515453052128784521_);}
	.st28{fill:url(#SVGID_00000038392133808697375090000006705665055998385803_);}
	.st29{fill:#E95B3E;}
	.st30{fill:#FFFBDB;}
	.st31{fill:url(#SVGID_00000116940096271475747880000015776481583433926824_);}
	.st32{fill:#EE889C;}
	.st33{fill:url(#SVGID_00000071535837991697623720000008859984634391877549_);}
	.st34{fill:url(#SVGID_00000131357347666087596230000015431554043767103402_);}
	.st35{fill:url(#SVGID_00000119085630688381532880000001332757349731654568_);}
	.st36{fill:url(#SVGID_00000106148649123561407050000009342561895388756617_);}
	.st37{fill:url(#SVGID_00000127734503763439549250000000751225720480683407_);}
	.st38{fill:url(#SVGID_00000181807366881747016460000001979336530000415113_);}
	.st39{fill:#F9BF00;}
</style>
<g id="Layer_1_00000018923151733465282920000007619797132138603166_">
	<g>
		<path class="st0" d="M37.2,0.2c1.3,0.6,5.7,10.2-3,11.8"/>
		<path class="st1" d="M34.2,12.2c-0.1,0-0.2-0.1-0.2-0.2c0-0.1,0.1-0.3,0.2-0.3c3-0.5,4.7-2,5-4.5c0.4-3.1-1.5-6.5-2.1-6.8
			C37,0.4,37,0.2,37,0.1C37.1,0,37.2-0.1,37.4,0c0.9,0.4,2.8,4.1,2.3,7.3C39.4,9.2,38.3,11.5,34.2,12.2
			C34.3,12.2,34.2,12.2,34.2,12.2"/>
		<path class="st2" d="M18.2,0.3l19-0.1l-3,11.8l-18.1-1.2L18.2,0.3z"/>
		<path class="st1" d="M16.4,10.6L34,11.7l2.9-11.2L18.4,0.6L16.4,10.6z M34.2,12.2C34.2,12.2,34.2,12.2,34.2,12.2l-18.1-1.2
			c-0.1,0-0.1,0-0.2-0.1c0-0.1-0.1-0.1,0-0.2L18,0.3c0-0.1,0.1-0.2,0.2-0.2l19-0.1h0c0.1,0,0.2,0,0.2,0.1c0,0.1,0.1,0.1,0,0.2
			l-3,11.8C34.4,12.2,34.3,12.2,34.2,12.2"/>
		<path class="st2" d="M5.1,16.1l11-5.3L34.2,12l-10.4,6.7L5.1,16.1z"/>
		<path class="st1" d="M6,16l17.8,2.5l9.7-6.3l-17.3-1.1L6,16z M23.8,19C23.8,19,23.8,19,23.8,19L5.1,16.4c-0.1,0-0.2-0.1-0.2-0.2
			c0-0.1,0-0.2,0.1-0.3l11-5.3c0,0,0.1,0,0.1,0l18.1,1.2c0.1,0,0.2,0.1,0.2,0.2c0,0.1,0,0.2-0.1,0.3L24,18.9
			C23.9,18.9,23.9,19,23.8,19"/>
		<path class="st3" d="M7.2,17.3c0.3-1.1,2.3-2.3,3.1-2.3s5.8-2.3,5.8-2.3l1.9,0.4c0,0,9.5,0.4,10.1,0.6c0.6,0.3,4,2.4,4,2.4l-1.7,7
			l-14.1,2.2L7.2,17.3z"/>
		<path class="st4" d="M23.9,11c-1.4-0.3-2.3,0-2.3,0.2c0,0.2,0.7,0.8,2.1,1c1.4,0.3,2.3,0,2.3-0.2C26,11.8,25.3,11.3,23.9,11
			 M23.6,12.8c-1.3-0.2-2.6-0.9-2.5-1.6c0.1-0.7,1.6-0.9,2.9-0.6c1.3,0.2,2.6,0.9,2.5,1.6C26.4,12.9,24.9,13,23.6,12.8"/>
		<path class="st4" d="M24,10.8c-1.4-0.3-2.3,0-2.3,0.2c0,0.2,0.7,0.8,2.1,1c1.4,0.3,2.3,0,2.3-0.2C26.1,11.6,25.3,11,24,10.8
			 M23.6,12.5c-1.3-0.2-2.6-0.9-2.5-1.6c0.1-0.7,1.6-0.9,2.9-0.6c1.3,0.2,2.6,0.9,2.5,1.6C26.4,12.6,25,12.7,23.6,12.5"/>
		<path class="st4" d="M26.2,12.1c-0.1,0.5-1.3,0.7-2.6,0.4c-1.4-0.3-2.4-0.8-2.3-1.3c0.1-0.5,1.3-0.7,2.6-0.4
			C25.3,11,26.3,11.6,26.2,12.1"/>
	</g>
	
		<linearGradient id="SVGID_1_" gradientUnits="userSpaceOnUse" x1="21.3959" y1="21.6174" x2="26.3016" y2="21.6174" gradientTransform="matrix(1 0 0 -1 0 33)">
		<stop  offset="0" style="stop-color:#FFF69A"/>
		<stop  offset="0.503" style="stop-color:#FED900"/>
		<stop  offset="1" style="stop-color:#FFF69A"/>
	</linearGradient>
	<path class="st5" d="M21.4,10.9c-0.1,0.5,0.9,1.1,2.3,1.3l0,0c1.4,0.2,2.5,0.1,2.6-0.4l0,0c0.1-0.5-0.9-1.1-2.3-1.3l0,0
		c-0.4-0.1-0.8-0.1-1.2-0.1l0,0C22.1,10.4,21.5,10.6,21.4,10.9z"/>
	<g>
		<path class="st4" d="M16.2,11.8c-1.4-0.2-2.3,0-2.3,0.2c0,0.2,0.7,0.8,2.1,1c1.4,0.2,2.3,0,2.3-0.2C18.4,12.6,17.6,12,16.2,11.8
			 M15.9,13.5c-1.3-0.2-2.6-0.9-2.5-1.6c0.1-0.7,1.5-0.9,2.9-0.6c1.3,0.2,2.6,0.9,2.5,1.6C18.7,13.6,17.2,13.8,15.9,13.5"/>
		<path class="st4" d="M16.3,11.5c-1.4-0.2-2.3,0-2.3,0.2c0,0.2,0.7,0.8,2.1,1c1.4,0.2,2.3,0,2.3-0.2C18.4,12.3,17.6,11.8,16.3,11.5
			 M16,13.3c-1.3-0.2-2.6-0.9-2.5-1.6c0.1-0.7,1.5-0.9,2.9-0.6c1.3,0.2,2.6,0.9,2.5,1.6C18.7,13.3,17.3,13.5,16,13.3"/>
		<path class="st4" d="M18.6,12.9c-0.1,0.5-1.3,0.7-2.6,0.4c-1.4-0.2-2.4-0.8-2.3-1.3c0.1-0.5,1.3-0.7,2.6-0.4
			C17.6,11.8,18.6,12.4,18.6,12.9"/>
	</g>
	
		<linearGradient id="SVGID_00000071519088129771547930000001672369339771051412_" gradientUnits="userSpaceOnUse" x1="13.6974" y1="20.8523" x2="18.6099" y2="20.8523" gradientTransform="matrix(1 0 0 -1 0 33)">
		<stop  offset="0" style="stop-color:#FFF69A"/>
		<stop  offset="0.503" style="stop-color:#FED900"/>
		<stop  offset="1" style="stop-color:#FFF69A"/>
	</linearGradient>
	<path style="fill:url(#SVGID_00000071519088129771547930000001672369339771051412_);" d="M13.7,11.7c-0.1,0.5,0.9,1.1,2.3,1.3l0,0
		c1.4,0.2,2.5,0,2.6-0.4l0,0c0.1-0.5-0.9-1.1-2.3-1.3l0,0c-0.4-0.1-0.8-0.1-1.1-0.1l0,0C14.4,11.2,13.8,11.4,13.7,11.7z"/>
	<g>
		<path class="st4" d="M12.4,13.6c-1.3,0.5-1.9,1.3-1.8,1.5c0.1,0.2,1,0.3,2.3-0.3c1.3-0.5,1.9-1.3,1.8-1.5
			C14.6,13.1,13.7,13,12.4,13.6 M13.1,15.2c-1.2,0.5-2.7,0.7-3,0c-0.3-0.7,0.8-1.6,2.1-2.1c1.2-0.5,2.7-0.7,3,0
			C15.5,13.8,14.4,14.7,13.1,15.2"/>
		<path class="st4" d="M12.3,13.3c-1.3,0.5-1.9,1.3-1.8,1.5c0.1,0.2,1,0.3,2.3-0.3c1.3-0.5,1.9-1.3,1.8-1.5
			C14.5,12.8,13.6,12.8,12.3,13.3 M13,15c-1.2,0.5-2.7,0.7-3,0c-0.3-0.7,0.8-1.6,2.1-2.1c1.3-0.5,2.7-0.7,3,0
			C15.4,13.5,14.2,14.4,13,15"/>
		<path class="st4" d="M15,13.2c0.2,0.4-0.7,1.2-1.9,1.8c-1.3,0.5-2.4,0.6-2.6,0.2c-0.2-0.4,0.7-1.2,1.9-1.8
			C13.6,12.8,14.8,12.8,15,13.2"/>
	</g>
	
		<linearGradient id="SVGID_00000141422330220792466250000003927976000010343552_" gradientUnits="userSpaceOnUse" x1="10.2365" y1="19.082" x2="14.8671" y2="19.082" gradientTransform="matrix(1 0 0 -1 0 33)">
		<stop  offset="0" style="stop-color:#FFF69A"/>
		<stop  offset="0.503" style="stop-color:#FED900"/>
		<stop  offset="1" style="stop-color:#FFF69A"/>
	</linearGradient>
	<path style="fill:url(#SVGID_00000141422330220792466250000003927976000010343552_);" d="M12.2,13.1c-1.3,0.5-2.1,1.3-1.9,1.8l0,0
		c0.2,0.4,1.4,0.4,2.6-0.2l0,0c1.3-0.5,2.1-1.3,1.9-1.8l0,0c-0.1-0.2-0.4-0.3-0.7-0.3l0,0C13.6,12.6,12.9,12.8,12.2,13.1z"/>
	<g>
		<path class="st4" d="M18.8,11.7c-1.3,0.5-1.9,1.3-1.8,1.5c0.1,0.2,1,0.3,2.3-0.3c1.3-0.5,1.9-1.3,1.8-1.5
			C21,11.2,20.1,11.1,18.8,11.7 M19.5,13.3c-1.3,0.5-2.7,0.7-3,0c-0.3-0.7,0.8-1.6,2.1-2.1c1.2-0.5,2.7-0.7,3,0
			C21.8,11.9,20.7,12.7,19.5,13.3"/>
		<path class="st4" d="M18.7,11.4c-1.3,0.5-1.9,1.3-1.8,1.5c0.1,0.2,1,0.3,2.3-0.3c1.3-0.5,1.9-1.3,1.8-1.5
			C20.9,10.9,20,10.9,18.7,11.4 M19.4,13c-1.2,0.5-2.7,0.7-3,0c-0.3-0.7,0.8-1.6,2.1-2.1c1.2-0.5,2.7-0.7,3,0
			C21.7,11.6,20.6,12.5,19.4,13"/>
		<path class="st4" d="M21.3,11.3c0.2,0.4-0.7,1.2-1.9,1.8c-1.3,0.5-2.4,0.6-2.6,0.2c-0.2-0.4,0.7-1.2,1.9-1.8
			C20,10.9,21.1,10.8,21.3,11.3"/>
	</g>
	
		<linearGradient id="SVGID_00000018950120079550424980000009904470999290622636_" gradientUnits="userSpaceOnUse" x1="16.6102" y1="21.0108" x2="21.2413" y2="21.0108" gradientTransform="matrix(1 0 0 -1 0 33)">
		<stop  offset="0" style="stop-color:#FFF69A"/>
		<stop  offset="0.503" style="stop-color:#FED900"/>
		<stop  offset="1" style="stop-color:#FFF69A"/>
	</linearGradient>
	<path style="fill:url(#SVGID_00000018950120079550424980000009904470999290622636_);" d="M18.6,11.2c-1.3,0.5-2.1,1.3-1.9,1.8l0,0
		c0.2,0.4,1.4,0.4,2.6-0.2l0,0c1.3-0.5,2.1-1.3,1.9-1.8l0,0c-0.1-0.2-0.4-0.3-0.7-0.3l0,0C20,10.7,19.3,10.9,18.6,11.2z"/>
	<g>
		<path class="st9" d="M13.2,14.6c0.3,0.4,0.2,0.9-0.1,1.1c-0.3,0.3-0.8,0.2-1.1-0.2c-0.3-0.4-0.3-0.9,0.1-1.2
			C12.4,14.1,12.9,14.2,13.2,14.6"/>
		<path class="st9" d="M14.6,13.8c0.2,0.4,0,0.9-0.3,1.1c-0.3,0.2-0.8,0-1.1-0.3c-0.3-0.4-0.2-0.9,0.3-1.2
			C13.9,13.2,14.4,13.4,14.6,13.8"/>
		<path class="st9" d="M16.1,13.5c0,0.5-0.2,0.9-0.6,1c-0.3,0.1-0.8-0.2-0.9-0.6c-0.2-0.4,0.1-1,0.6-1.1
			C15.6,12.7,16.1,13,16.1,13.5"/>
		<path class="st9" d="M17.7,13.4c0,0.5-0.4,0.9-0.8,0.9c-0.4,0-0.8-0.3-0.8-0.8c-0.1-0.5,0.3-0.9,0.8-0.9
			C17.3,12.6,17.7,13,17.7,13.4"/>
		<path class="st4" d="M18,13.1c-0.1,0-0.2,0-0.3,0.1c-0.1,0.2,0.4,1,1.5,1.8c0.7,0.5,1.5,0.8,2,0.8c0.1,0,0.2,0,0.3-0.1
			c0.1-0.2-0.4-1-1.5-1.8C19.2,13.4,18.5,13.1,18,13.1 M21.2,16.2c-0.6,0-1.4-0.3-2.2-0.9c-1.1-0.8-2.1-1.8-1.6-2.5
			c0.1-0.1,0.3-0.3,0.7-0.3c0.6,0,1.4,0.3,2.2,0.9c1.1,0.8,2.1,1.8,1.6,2.5C21.8,16.1,21.6,16.2,21.2,16.2"/>
		<path class="st4" d="M18.1,12.8c-0.1,0-0.2,0-0.3,0.1c-0.1,0.2,0.4,1,1.5,1.8c0.7,0.5,1.5,0.8,2,0.8c0.1,0,0.2,0,0.3-0.1
			c0-0.1,0-0.3-0.3-0.6c-0.3-0.4-0.7-0.8-1.3-1.1C19.4,13.2,18.6,12.8,18.1,12.8 M21.3,16c-0.6,0-1.4-0.3-2.2-0.9
			c-1.1-0.8-2.1-1.8-1.6-2.5c0.1-0.1,0.3-0.3,0.7-0.3c0.6,0,1.4,0.3,2.2,0.9c0.6,0.4,1.1,0.8,1.4,1.3c0.5,0.6,0.4,1,0.3,1.2
			C21.9,15.8,21.7,16,21.3,16"/>
		<path class="st4" d="M21.7,15.8c-0.3,0.4-1.4,0.1-2.6-0.7c-1.1-0.8-1.8-1.7-1.6-2.1c0.3-0.4,1.4-0.1,2.6,0.7
			C21.2,14.4,21.9,15.4,21.7,15.8"/>
	</g>
	
		<linearGradient id="SVGID_00000008852412175820373260000015599827496637048733_" gradientUnits="userSpaceOnUse" x1="17.6222" y1="18.8337" x2="21.8736" y2="18.8337" gradientTransform="matrix(1 0 0 -1 0 33)">
		<stop  offset="0" style="stop-color:#FFF69A"/>
		<stop  offset="0.503" style="stop-color:#FED900"/>
		<stop  offset="1" style="stop-color:#FFF69A"/>
	</linearGradient>
	<path style="fill:url(#SVGID_00000008852412175820373260000015599827496637048733_);" d="M17.7,12.8c-0.3,0.4,0.4,1.4,1.6,2.1l0,0
		c1.1,0.8,2.3,1.1,2.6,0.7l0,0c0.3-0.4-0.4-1.4-1.6-2.1l0,0c-0.8-0.5-1.6-0.8-2.1-0.8l0,0C17.9,12.6,17.8,12.7,17.7,12.8z"/>
	<g>
		<path class="st4" d="M16.3,9.8c-0.1,0-0.2,0-0.3,0.1c-0.1,0.2,0.4,1,1.5,1.8c0.7,0.5,1.5,0.8,2,0.8c0.1,0,0.2,0,0.3-0.1
			c0.1-0.2-0.4-1-1.5-1.8C17.5,10.1,16.8,9.8,16.3,9.8 M19.5,12.9c-0.6,0-1.4-0.3-2.2-0.9c-1.1-0.8-2.1-1.8-1.6-2.5
			c0.1-0.1,0.3-0.3,0.7-0.3c0.6,0,1.4,0.3,2.2,0.9c1.1,0.8,2.1,1.8,1.6,2.5C20.1,12.8,19.9,12.9,19.5,12.9"/>
		<path class="st4" d="M16.5,9.6c-0.1,0-0.2,0-0.3,0.1c-0.1,0.2,0.4,1,1.5,1.8c0.7,0.5,1.5,0.8,2,0.8c0.1,0,0.2,0,0.3-0.1
			c0-0.1,0-0.3-0.3-0.6c-0.3-0.4-0.7-0.8-1.3-1.1C17.7,9.9,16.9,9.6,16.5,9.6 M19.7,12.7c-0.6,0-1.4-0.3-2.2-0.9
			c-1.1-0.8-2.1-1.8-1.6-2.5c0.1-0.1,0.3-0.3,0.7-0.3c0.6,0,1.4,0.3,2.2,0.9c0.6,0.4,1.1,0.8,1.4,1.3c0.5,0.6,0.4,1,0.3,1.2
			C20.3,12.5,20.1,12.7,19.7,12.7"/>
		<path class="st4" d="M20,12.5c-0.3,0.4-1.4,0.1-2.6-0.7c-1.1-0.8-1.8-1.7-1.6-2.1c0.3-0.4,1.4-0.1,2.6,0.7
			C19.5,11.2,20.3,12.1,20,12.5"/>
	</g>
	
		<linearGradient id="SVGID_00000017516236552135882440000001061986980621142917_" gradientUnits="userSpaceOnUse" x1="15.9447" y1="22.1046" x2="20.1961" y2="22.1046" gradientTransform="matrix(1 0 0 -1 0 33)">
		<stop  offset="0" style="stop-color:#FFF69A"/>
		<stop  offset="0.503" style="stop-color:#FED900"/>
		<stop  offset="1" style="stop-color:#FFF69A"/>
	</linearGradient>
	<path style="fill:url(#SVGID_00000017516236552135882440000001061986980621142917_);" d="M16,9.5c-0.3,0.4,0.4,1.4,1.6,2.1l0,0
		c1.1,0.8,2.3,1.1,2.6,0.7l0,0c0.3-0.4-0.4-1.4-1.6-2.1l0,0c-0.8-0.5-1.6-0.8-2.1-0.8l0,0C16.2,9.3,16.1,9.4,16,9.5z"/>
	<g>
		<path class="st4" d="M23.7,12.5c-1.4,0-2.2,0.4-2.2,0.6c0,0.2,0.9,0.6,2.2,0.6c1.4,0,2.2-0.4,2.2-0.6
			C25.9,12.9,25.1,12.5,23.7,12.5 M23.7,14.3c-1.4,0-2.7-0.4-2.7-1.1c0-0.7,1.4-1.1,2.7-1.1c1.4,0,2.7,0.4,2.7,1.1
			C26.4,13.9,25,14.3,23.7,14.3"/>
		<path class="st4" d="M23.7,12.2c-1.4,0-2.2,0.4-2.2,0.6c0,0.2,0.9,0.6,2.2,0.6c1.4,0,2.2-0.4,2.2-0.6
			C25.9,12.6,25.1,12.2,23.7,12.2 M23.7,14c-1.4,0-2.7-0.4-2.7-1.1c0-0.7,1.4-1.1,2.7-1.1c1.4,0,2.7,0.4,2.7,1.1
			C26.4,13.6,25,14,23.7,14"/>
		<path class="st4" d="M26.2,13.1c0,0.5-1.1,0.9-2.5,0.9c-1.4,0-2.5-0.4-2.5-0.9c0-0.5,1.1-0.9,2.5-0.9
			C25.1,12.3,26.2,12.7,26.2,13.1"/>
	</g>
	
		<linearGradient id="SVGID_00000108285342842841993570000013254203323268593315_" gradientUnits="userSpaceOnUse" x1="21.187" y1="20.1337" x2="26.165" y2="20.1337" gradientTransform="matrix(1 0 0 -1 0 33)">
		<stop  offset="0" style="stop-color:#FFF69A"/>
		<stop  offset="0.503" style="stop-color:#FED900"/>
		<stop  offset="1" style="stop-color:#FFF69A"/>
	</linearGradient>
	<path style="fill:url(#SVGID_00000108285342842841993570000013254203323268593315_);" d="M21.2,12.9c0,0.5,1.1,0.9,2.5,0.9l0,0
		c1.4,0,2.5-0.4,2.5-0.9l0,0c0-0.5-1.1-0.9-2.5-0.9l0,0C22.3,12,21.2,12.4,21.2,12.9z"/>
	<g>
		<path class="st4" d="M30.2,12.8c-1.4,0-2.2,0.4-2.2,0.6c0,0.2,0.9,0.6,2.2,0.6c1.4,0,2.2-0.4,2.2-0.6
			C32.5,13.2,31.6,12.8,30.2,12.8 M30.2,14.5c-1.4,0-2.7-0.4-2.7-1.1c0-0.7,1.4-1.1,2.7-1.1c1.4,0,2.7,0.4,2.7,1.1
			C33,14.1,31.6,14.5,30.2,14.5"/>
		<path class="st4" d="M30.2,12.5c-1.4,0-2.2,0.4-2.2,0.6c0,0.2,0.9,0.6,2.2,0.6c1.4,0,2.2-0.4,2.2-0.6
			C32.5,12.9,31.6,12.5,30.2,12.5 M30.2,14.2c-1.4,0-2.7-0.4-2.7-1.1c0-0.7,1.4-1.1,2.7-1.1c1.4,0,2.7,0.4,2.7,1.1
			C33,13.9,31.6,14.2,30.2,14.2"/>
		<path class="st4" d="M32.7,13.4c0,0.5-1.1,0.9-2.5,0.9s-2.5-0.4-2.5-0.9c0-0.5,1.1-0.9,2.5-0.9S32.7,12.9,32.7,13.4"/>
	</g>
	
		<linearGradient id="SVGID_00000033358698662524052590000017018526073875067039_" gradientUnits="userSpaceOnUse" x1="27.7287" y1="19.8819" x2="32.7068" y2="19.8819" gradientTransform="matrix(1 0 0 -1 0 33)">
		<stop  offset="0" style="stop-color:#FFF69A"/>
		<stop  offset="0.503" style="stop-color:#FED900"/>
		<stop  offset="1" style="stop-color:#FFF69A"/>
	</linearGradient>
	<path style="fill:url(#SVGID_00000033358698662524052590000017018526073875067039_);" d="M27.7,13.1c0,0.5,1.1,0.9,2.5,0.9l0,0
		c1.4,0,2.5-0.4,2.5-0.9l0,0c0-0.5-1.1-0.9-2.5-0.9l0,0C28.8,12.2,27.7,12.6,27.7,13.1z"/>
	<g>
		<path class="st4" d="M31,11.8c-1.3,0.5-1.9,1.3-1.8,1.5c0.1,0.2,1,0.3,2.3-0.3c1.3-0.5,1.9-1.3,1.8-1.5
			C33.3,11.3,32.3,11.3,31,11.8 M31.7,13.4c-1.3,0.5-2.7,0.7-3,0c-0.3-0.7,0.8-1.6,2.1-2.1c1.2-0.5,2.7-0.7,3,0
			C34.1,12,33,12.9,31.7,13.4"/>
		<path class="st4" d="M30.9,11.5c-1.3,0.5-1.9,1.3-1.8,1.5c0.1,0.2,1,0.3,2.3-0.3c1.3-0.5,1.9-1.3,1.8-1.5
			C33.1,11,32.2,11,30.9,11.5 M31.6,13.2c-1.2,0.5-2.7,0.7-3,0c-0.3-0.7,0.8-1.6,2.1-2.1c1.3-0.5,2.7-0.7,3,0
			C34,11.7,32.9,12.6,31.6,13.2"/>
		<path class="st4" d="M33.6,11.4c0.2,0.4-0.7,1.2-1.9,1.8c-1.3,0.5-2.4,0.6-2.6,0.2c-0.2-0.4,0.7-1.2,1.9-1.8
			C32.2,11,33.4,11,33.6,11.4"/>
	</g>
	
		<linearGradient id="SVGID_00000034091663369244571300000011766471571870219681_" gradientUnits="userSpaceOnUse" x1="28.8526" y1="20.8773" x2="33.4854" y2="20.8773" gradientTransform="matrix(1 0 0 -1 0 33)">
		<stop  offset="0" style="stop-color:#FFF69A"/>
		<stop  offset="0.503" style="stop-color:#FED900"/>
		<stop  offset="1" style="stop-color:#FFF69A"/>
	</linearGradient>
	<path style="fill:url(#SVGID_00000034091663369244571300000011766471571870219681_);" d="M30.8,11.3c-1.3,0.5-2.1,1.3-1.9,1.8l0,0
		c0.2,0.4,1.4,0.4,2.6-0.2l0,0c1.3-0.5,2.1-1.3,1.9-1.8l0,0c-0.1-0.2-0.4-0.3-0.7-0.3l0,0C32.2,10.9,31.5,11,30.8,11.3z"/>
	<g>
		<path class="st15" d="M22.8,13.7l-0.9,2l-2.2,0.2l-1.3-1.8l0.9-2l2.2-0.2L22.8,13.7z"/>
		<path class="st16" d="M22.7,13.7l-1.2-1.7l-2.1,0.2l-0.9,1.9l1.2,1.7l2.1-0.2L22.7,13.7z M21.6,11.9l1.3,1.8L22,15.8L19.7,16
			l-1.3-1.8l0.9-2.1L21.6,11.9z"/>
		<path class="st17" d="M22.8,13.7C22.8,13.7,22.8,13.7,22.8,13.7C22.8,13.8,22.8,13.8,22.8,13.7l-4.2,0.5c0,0-0.1,0-0.1-0.1
			c0,0,0-0.1,0.1-0.1L22.8,13.7C22.8,13.7,22.8,13.7,22.8,13.7"/>
		<path class="st16" d="M22.8,13.7C22.8,13.7,22.8,13.7,22.8,13.7C22.8,13.8,22.8,13.8,22.8,13.7l-4.2,0.5c0,0-0.1,0-0.1-0.1
			c0,0,0-0.1,0.1-0.1L22.8,13.7C22.8,13.7,22.8,13.7,22.8,13.7"/>
		<path class="st16" d="M21.6,12C21.6,12,21.6,12,21.6,12l-1.7,3.8c0,0,0,0-0.1,0c0,0,0,0,0-0.1l1.7-3.8C21.5,12,21.5,12,21.6,12
			C21.6,12,21.6,12,21.6,12"/>
		<path class="st16" d="M19.5,12.2L19.5,12.2l2.4,3.4c0,0,0,0.1,0,0.1c0,0-0.1,0-0.1,0L19.5,12.2C19.4,12.3,19.4,12.2,19.5,12.2
			C19.5,12.2,19.5,12.2,19.5,12.2"/>
		<path class="st15" d="M21.8,13.8l-0.5,1L20.2,15L19.5,14l0.5-1l1.1-0.1L21.8,13.8z"/>
		<path class="st16" d="M21.7,13.8L21.1,13L20,13.1l-0.4,1l0.6,0.9l1.1-0.1L21.7,13.8z M21.2,12.8l0.7,1l-0.5,1.1L20.2,15l-0.7-1
			l0.5-1.1L21.2,12.8z"/>
		<path class="st4" d="M21.4,15.2c-1.4,0-2.2,0.4-2.2,0.6c0,0.2,0.9,0.6,2.2,0.6c1.4,0,2.2-0.4,2.2-0.6
			C23.6,15.6,22.8,15.2,21.4,15.2 M21.4,17c-1.4,0-2.7-0.4-2.7-1.1c0-0.7,1.4-1.1,2.7-1.1c1.4,0,2.7,0.4,2.7,1.1
			C24.1,16.6,22.7,17,21.4,17"/>
		<path class="st4" d="M21.4,14.9c-1.4,0-2.2,0.4-2.2,0.6c0,0.2,0.9,0.6,2.2,0.6c1.4,0,2.2-0.4,2.2-0.6
			C23.6,15.3,22.8,14.9,21.4,14.9 M21.4,16.7c-1.4,0-2.7-0.4-2.7-1.1c0-0.7,1.4-1.1,2.7-1.1c1.4,0,2.7,0.4,2.7,1.1
			C24.1,16.3,22.7,16.7,21.4,16.7"/>
		<path class="st4" d="M23.9,15.8c0,0.5-1.1,0.9-2.5,0.9c-1.4,0-2.5-0.4-2.5-0.9c0-0.5,1.1-0.9,2.5-0.9
			C22.8,14.9,23.9,15.3,23.9,15.8"/>
	</g>
	
		<linearGradient id="SVGID_00000021835624740281740030000002885530479896014245_" gradientUnits="userSpaceOnUse" x1="18.8871" y1="17.4534" x2="23.8652" y2="17.4534" gradientTransform="matrix(1 0 0 -1 0 33)">
		<stop  offset="0" style="stop-color:#FFF69A"/>
		<stop  offset="0.503" style="stop-color:#FED900"/>
		<stop  offset="1" style="stop-color:#FFF69A"/>
	</linearGradient>
	<path style="fill:url(#SVGID_00000021835624740281740030000002885530479896014245_);" d="M18.9,15.5c0,0.5,1.1,0.9,2.5,0.9l0,0
		c1.4,0,2.5-0.4,2.5-0.9l0,0c0-0.5-1.1-0.9-2.5-0.9l0,0C20,14.7,18.9,15.1,18.9,15.5z"/>
	<g>
		<path class="st4" d="M26.2,12.4c-0.1,0-0.2,0-0.3,0.1c-0.1,0.2,0.4,1,1.5,1.8c0.7,0.5,1.5,0.8,2,0.8c0.1,0,0.2,0,0.3-0.1
			c0.1-0.2-0.4-1-1.5-1.8C27.5,12.7,26.7,12.4,26.2,12.4 M29.4,15.5c-0.6,0-1.4-0.3-2.2-0.9c-1.1-0.8-2.1-1.8-1.6-2.5
			c0.1-0.1,0.3-0.3,0.7-0.3c0.6,0,1.4,0.3,2.2,0.9c1.1,0.8,2.1,1.8,1.6,2.5C30,15.3,29.8,15.5,29.4,15.5"/>
		<path class="st4" d="M26.4,12.1c-0.1,0-0.2,0-0.3,0.1c-0.1,0.2,0.4,1,1.5,1.8c0.7,0.5,1.5,0.8,2,0.8c0.1,0,0.2,0,0.3-0.1
			c0-0.1,0-0.3-0.3-0.6c-0.3-0.4-0.7-0.8-1.3-1.1C27.6,12.4,26.8,12.1,26.4,12.1 M29.6,15.3c-0.6,0-1.4-0.3-2.2-0.9
			c-1.1-0.8-2.1-1.8-1.6-2.5c0.1-0.1,0.3-0.3,0.7-0.3c0.6,0,1.4,0.3,2.2,0.9c0.6,0.4,1.1,0.8,1.4,1.3c0.5,0.6,0.4,1,0.3,1.2
			C30.2,15.1,30,15.3,29.6,15.3"/>
		<path class="st4" d="M29.9,15.1c-0.3,0.4-1.4,0.1-2.6-0.7c-1.1-0.8-1.8-1.7-1.6-2.1c0.3-0.4,1.4-0.1,2.6,0.7
			C29.5,13.7,30.2,14.7,29.9,15.1"/>
	</g>
	
		<linearGradient id="SVGID_00000176013253269003821300000015342108238758501767_" gradientUnits="userSpaceOnUse" x1="25.8515" y1="19.5581" x2="30.1029" y2="19.5581" gradientTransform="matrix(1 0 0 -1 0 33)">
		<stop  offset="0" style="stop-color:#FFF69A"/>
		<stop  offset="0.503" style="stop-color:#FED900"/>
		<stop  offset="1" style="stop-color:#FFF69A"/>
	</linearGradient>
	<path style="fill:url(#SVGID_00000176013253269003821300000015342108238758501767_);" d="M25.9,12.1c-0.3,0.4,0.4,1.4,1.6,2.1l0,0
		c1.1,0.8,2.3,1.1,2.6,0.7l0,0c0.3-0.4-0.4-1.4-1.6-2.1l0,0c-0.8-0.5-1.6-0.8-2.1-0.8l0,0C26.2,11.9,26,11.9,25.9,12.1z"/>
	<g>
		<path class="st4" d="M20.1,15.5c-1.4,0-2.2,0.4-2.2,0.6c0,0.2,0.9,0.6,2.2,0.6c1.4,0,2.2-0.4,2.2-0.6C22.3,16,21.5,15.5,20.1,15.5
			 M20.1,17.3c-1.4,0-2.7-0.4-2.7-1.1c0-0.7,1.4-1.1,2.7-1.1c1.4,0,2.7,0.4,2.7,1.1C22.8,16.9,21.4,17.3,20.1,17.3"/>
		<path class="st4" d="M20.1,15.3c-1.4,0-2.2,0.4-2.2,0.6c0,0.2,0.9,0.6,2.2,0.6c1.4,0,2.2-0.4,2.2-0.6
			C22.3,15.7,21.5,15.3,20.1,15.3 M20.1,17c-1.4,0-2.7-0.4-2.7-1.1c0-0.7,1.4-1.1,2.7-1.1c1.4,0,2.7,0.4,2.7,1.1
			C22.8,16.6,21.4,17,20.1,17"/>
		<path class="st4" d="M22.6,16.2c0,0.5-1.1,0.9-2.5,0.9c-1.4,0-2.5-0.4-2.5-0.9c0-0.5,1.1-0.9,2.5-0.9
			C21.5,15.3,22.6,15.7,22.6,16.2"/>
	</g>
	
		<linearGradient id="SVGID_00000048496461598706378870000011819411986477912992_" gradientUnits="userSpaceOnUse" x1="17.5868" y1="17.0962" x2="22.5654" y2="17.0962" gradientTransform="matrix(1 0 0 -1 0 33)">
		<stop  offset="0" style="stop-color:#FFF69A"/>
		<stop  offset="0.503" style="stop-color:#FED900"/>
		<stop  offset="1" style="stop-color:#FFF69A"/>
	</linearGradient>
	<path style="fill:url(#SVGID_00000048496461598706378870000011819411986477912992_);" d="M17.6,15.9c0,0.5,1.1,0.9,2.5,0.9l0,0
		c1.4,0,2.5-0.4,2.5-0.9l0,0c0-0.5-1.1-0.9-2.5-0.9l0,0C18.7,15,17.6,15.4,17.6,15.9z"/>
	<g>
		<path class="st9" d="M20.5,16.2c0.3,0.4,0.2,0.9-0.2,1.2c-0.2,0.1-0.5,0.2-0.7,0.1c-0.3-0.1-0.4-0.2-0.5-0.5
			c-0.1-0.5-0.1-0.9,0.3-1.1C19.7,15.7,20.3,15.8,20.5,16.2"/>
		<path class="st9" d="M21.9,15.2c0.3,0.4,0.2,0.9-0.2,1.2c-0.4,0.3-0.9,0.2-1.2-0.2c-0.3-0.4-0.2-0.9,0.2-1.2
			C21.1,14.7,21.7,14.8,21.9,15.2"/>
		<path class="st9" d="M23.4,14.3c0.2,0.4,0.1,0.9-0.3,1.1c-0.4,0.2-0.9,0.1-1.2-0.3c-0.3-0.4-0.2-0.9,0.3-1.2
			C22.6,13.8,23.2,13.9,23.4,14.3"/>
		<path class="st9" d="M25,13.8c0.1,0.5-0.2,0.9-0.5,1c-0.4,0.1-0.8-0.1-1.1-0.5c-0.2-0.4,0-1,0.5-1.1C24.4,13,24.9,13.3,25,13.8"/>
		<path class="st9" d="M26.7,13.8c0,0.5-0.4,0.8-0.9,0.8c-0.2,0-0.4-0.1-0.5-0.2C25.1,14.2,25,14,25,13.8c0-0.2,0-0.5,0.2-0.6
			c0.2-0.2,0.4-0.3,0.7-0.3C26.4,12.9,26.7,13.3,26.7,13.8"/>
		<path class="st9" d="M28.3,14.1c-0.1,0.5-0.6,0.7-1,0.7c-0.4-0.1-0.7-0.5-0.7-1c0-0.5,0.5-0.8,1-0.7
			C28.2,13.1,28.5,13.6,28.3,14.1"/>
		<path class="st9" d="M29.9,14.7c-0.2,0.4-0.7,0.6-1.1,0.4c-0.4-0.1-0.6-0.6-0.5-1.1c0.1-0.5,0.6-0.7,1.1-0.5
			C29.9,13.7,30.2,14.3,29.9,14.7"/>
		<path class="st9" d="M31.1,15.9C30.9,16,30.7,16,30.5,16c-0.2,0-0.3,0-0.5-0.1c-0.2-0.2-0.3-0.7-0.1-1.1c0.2-0.4,0.8-0.6,1.3-0.2
			c0.2,0.2,0.3,0.5,0.3,0.8C31.5,15.6,31.3,15.8,31.1,15.9"/>
		<path class="st4" d="M27.3,15.2c-1.4,0-2.2,0.4-2.2,0.6c0,0.2,0.9,0.6,2.2,0.6c1.4,0,2.2-0.4,2.2-0.6
			C29.5,15.6,28.7,15.2,27.3,15.2 M27.3,17c-1.4,0-2.7-0.4-2.7-1.1c0-0.7,1.4-1.1,2.7-1.1c1.4,0,2.7,0.4,2.7,1.1
			C30,16.6,28.6,17,27.3,17"/>
		<path class="st4" d="M27.3,14.9c-1.4,0-2.2,0.4-2.2,0.6c0,0.2,0.9,0.6,2.2,0.6c1.4,0,2.2-0.4,2.2-0.6
			C29.5,15.4,28.7,14.9,27.3,14.9 M27.3,16.7c-1.4,0-2.7-0.4-2.7-1.1c0-0.7,1.4-1.1,2.7-1.1c1.4,0,2.7,0.4,2.7,1.1
			C30,16.3,28.6,16.7,27.3,16.7"/>
		<path class="st4" d="M29.8,15.9c0,0.5-1.1,0.9-2.5,0.9c-1.4,0-2.5-0.4-2.5-0.9c0-0.5,1.1-0.9,2.5-0.9C28.7,15,29.8,15.4,29.8,15.9
			"/>
	</g>
	
		<linearGradient id="SVGID_00000058583278741720489920000011502271650827931284_" gradientUnits="userSpaceOnUse" x1="24.7881" y1="17.4252" x2="29.7661" y2="17.4252" gradientTransform="matrix(1 0 0 -1 0 33)">
		<stop  offset="0" style="stop-color:#FFF69A"/>
		<stop  offset="0.503" style="stop-color:#FED900"/>
		<stop  offset="1" style="stop-color:#FFF69A"/>
	</linearGradient>
	<path style="fill:url(#SVGID_00000058583278741720489920000011502271650827931284_);" d="M24.8,15.6c0,0.5,1.1,0.9,2.5,0.9l0,0
		c1.4,0,2.5-0.4,2.5-0.9l0,0c0-0.5-1.1-0.9-2.5-0.9l0,0C25.9,14.7,24.8,15.1,24.8,15.6z"/>
	<g>
		<path class="st4" d="M23.7,15.7c-1.4,0-2.2,0.4-2.2,0.6c0,0.2,0.9,0.6,2.2,0.6c1.4,0,2.2-0.4,2.2-0.6
			C25.9,16.1,25.1,15.7,23.7,15.7 M23.7,17.4c-1.4,0-2.7-0.4-2.7-1.1s1.4-1.1,2.7-1.1c1.4,0,2.7,0.4,2.7,1.1S25,17.4,23.7,17.4"/>
		<path class="st4" d="M23.7,15.4c-1.4,0-2.2,0.4-2.2,0.6c0,0.2,0.9,0.6,2.2,0.6c1.4,0,2.2-0.4,2.2-0.6
			C25.9,15.8,25.1,15.4,23.7,15.4 M23.7,17.2c-1.4,0-2.7-0.4-2.7-1.1c0-0.7,1.4-1.1,2.7-1.1c1.4,0,2.7,0.4,2.7,1.1
			C26.4,16.8,25,17.2,23.7,17.2"/>
		<path class="st4" d="M26.2,16.3c0,0.5-1.1,0.9-2.5,0.9c-1.4,0-2.5-0.4-2.5-0.9c0-0.5,1.1-0.9,2.5-0.9
			C25.1,15.4,26.2,15.8,26.2,16.3"/>
	</g>
	
		<linearGradient id="SVGID_00000014634887440755778400000012164445752326239663_" gradientUnits="userSpaceOnUse" x1="21.187" y1="16.9709" x2="26.165" y2="16.9709" gradientTransform="matrix(1 0 0 -1 0 33)">
		<stop  offset="0" style="stop-color:#FFF69A"/>
		<stop  offset="0.503" style="stop-color:#FED900"/>
		<stop  offset="1" style="stop-color:#FFF69A"/>
	</linearGradient>
	<path style="fill:url(#SVGID_00000014634887440755778400000012164445752326239663_);" d="M21.2,16c0,0.5,1.1,0.9,2.5,0.9l0,0
		c1.4,0,2.5-0.4,2.5-0.9l0,0c0-0.5-1.1-0.9-2.5-0.9l0,0C22.3,15.1,21.2,15.5,21.2,16z"/>
	<g>
		<path class="st4" d="M23.5,14.9c-1.4,0-2.2,0.4-2.2,0.6c0,0.2,0.9,0.6,2.2,0.6c1.4,0,2.2-0.4,2.2-0.6
			C25.7,15.3,24.9,14.9,23.5,14.9 M23.5,16.6c-1.4,0-2.7-0.4-2.7-1.1c0-0.7,1.4-1.1,2.7-1.1c1.4,0,2.7,0.4,2.7,1.1
			C26.2,16.3,24.8,16.6,23.5,16.6"/>
		<path class="st4" d="M23.5,14.6c-1.4,0-2.2,0.4-2.2,0.6c0,0.2,0.9,0.6,2.2,0.6c1.4,0,2.2-0.4,2.2-0.6C25.7,15,24.9,14.6,23.5,14.6
			 M23.5,16.4c-1.4,0-2.7-0.4-2.7-1.1c0-0.7,1.4-1.1,2.7-1.1c1.4,0,2.7,0.4,2.7,1.1C26.2,16,24.8,16.4,23.5,16.4"/>
		<path class="st4" d="M26,15.5c0,0.5-1.1,0.9-2.5,0.9c-1.4,0-2.5-0.4-2.5-0.9c0-0.5,1.1-0.9,2.5-0.9C24.9,14.6,26,15,26,15.5"/>
	</g>
	
		<linearGradient id="SVGID_00000137851964000370076220000008367073629353510017_" gradientUnits="userSpaceOnUse" x1="20.9987" y1="17.7617" x2="25.9768" y2="17.7617" gradientTransform="matrix(1 0 0 -1 0 33)">
		<stop  offset="0" style="stop-color:#FFF69A"/>
		<stop  offset="0.503" style="stop-color:#FED900"/>
		<stop  offset="1" style="stop-color:#FFF69A"/>
	</linearGradient>
	<path style="fill:url(#SVGID_00000137851964000370076220000008367073629353510017_);" d="M21,15.2c0,0.5,1.1,0.9,2.5,0.9l0,0
		c1.4,0,2.5-0.4,2.5-0.9l0,0c0-0.5-1.1-0.9-2.5-0.9l0,0C22.1,14.4,21,14.8,21,15.2z"/>
	<g>
		<path class="st4" d="M27.8,11c-1.4,0-2.2,0.4-2.2,0.6c0,0.2,0.9,0.6,2.2,0.6c1.4,0,2.2-0.4,2.2-0.6C30.1,11.4,29.2,11,27.8,11
			 M27.8,12.8c-1.4,0-2.7-0.4-2.7-1.1c0-0.7,1.4-1.1,2.7-1.1c1.4,0,2.7,0.4,2.7,1.1C30.6,12.4,29.2,12.8,27.8,12.8"/>
		<path class="st4" d="M27.8,10.7c-1.4,0-2.2,0.4-2.2,0.6c0,0.2,0.9,0.6,2.2,0.6c1.4,0,2.2-0.4,2.2-0.6
			C30.1,11.2,29.2,10.7,27.8,10.7 M27.8,12.5c-1.4,0-2.7-0.4-2.7-1.1c0-0.7,1.4-1.1,2.7-1.1c1.4,0,2.7,0.4,2.7,1.1
			C30.6,12.1,29.2,12.5,27.8,12.5"/>
		<path class="st4" d="M30.3,11.7c0,0.5-1.1,0.9-2.5,0.9c-1.4,0-2.5-0.4-2.5-0.9c0-0.5,1.1-0.9,2.5-0.9
			C29.2,10.8,30.3,11.2,30.3,11.7"/>
	</g>
	
		<linearGradient id="SVGID_00000178892591679409727350000015903383451046032806_" gradientUnits="userSpaceOnUse" x1="25.3601" y1="21.6198" x2="30.3381" y2="21.6198" gradientTransform="matrix(1 0 0 -1 0 33)">
		<stop  offset="0" style="stop-color:#FFF69A"/>
		<stop  offset="0.503" style="stop-color:#FED900"/>
		<stop  offset="1" style="stop-color:#FFF69A"/>
	</linearGradient>
	<path style="fill:url(#SVGID_00000178892591679409727350000015903383451046032806_);" d="M25.4,11.4c0,0.5,1.1,0.9,2.5,0.9l0,0
		c1.4,0,2.5-0.4,2.5-0.9l0,0c0-0.5-1.1-0.9-2.5-0.9l0,0C26.5,10.5,25.4,10.9,25.4,11.4z"/>
	<g>
		<path class="st4" d="M25.2,17c-1.4,0-2.2,0.4-2.2,0.6s0.9,0.6,2.2,0.6c1.4,0,2.2-0.4,2.2-0.6S26.6,17,25.2,17 M25.2,18.8
			c-1.4,0-2.7-0.4-2.7-1.1c0-0.7,1.4-1.1,2.7-1.1c1.4,0,2.7,0.4,2.7,1.1C28,18.4,26.6,18.8,25.2,18.8"/>
		<path class="st4" d="M25.2,16.7c-1.4,0-2.2,0.4-2.2,0.6c0,0.2,0.9,0.6,2.2,0.6c1.4,0,2.2-0.4,2.2-0.6
			C27.5,17.2,26.6,16.7,25.2,16.7 M25.2,18.5c-1.4,0-2.7-0.4-2.7-1.1c0-0.7,1.4-1.1,2.7-1.1c1.4,0,2.7,0.4,2.7,1.1
			C28,18.1,26.6,18.5,25.2,18.5"/>
		<path class="st4" d="M27.7,17.7c0,0.5-1.1,0.9-2.5,0.9c-1.4,0-2.5-0.4-2.5-0.9c0-0.5,1.1-0.9,2.5-0.9
			C26.6,16.8,27.7,17.2,27.7,17.7"/>
	</g>
	
		<linearGradient id="SVGID_00000106129069645665201810000018333505258958493065_" gradientUnits="userSpaceOnUse" x1="22.7536" y1="15.6223" x2="27.7316" y2="15.6223" gradientTransform="matrix(1 0 0 -1 0 33)">
		<stop  offset="0" style="stop-color:#FFF69A"/>
		<stop  offset="0.503" style="stop-color:#FED900"/>
		<stop  offset="1" style="stop-color:#FFF69A"/>
	</linearGradient>
	<path style="fill:url(#SVGID_00000106129069645665201810000018333505258958493065_);" d="M22.8,17.4c0,0.5,1.1,0.9,2.5,0.9l0,0
		c1.4,0,2.5-0.4,2.5-0.9l0,0c0-0.5-1.1-0.9-2.5-0.9l0,0C23.9,16.5,22.8,16.9,22.8,17.4z"/>
	<g>
		<path class="st4" d="M18.3,16.4c-1.4,0-2.2,0.4-2.2,0.6c0,0.2,0.9,0.6,2.2,0.6c1.4,0,2.2-0.4,2.2-0.6
			C20.5,16.8,19.7,16.4,18.3,16.4 M18.3,18.1c-1.4,0-2.7-0.4-2.7-1.1c0-0.7,1.4-1.1,2.7-1.1c1.4,0,2.7,0.4,2.7,1.1
			C21,17.7,19.6,18.1,18.3,18.1"/>
		<path class="st4" d="M18.3,16.1c-1.4,0-2.2,0.4-2.2,0.6c0,0.2,0.9,0.6,2.2,0.6c1.4,0,2.2-0.4,2.2-0.6
			C20.5,16.5,19.7,16.1,18.3,16.1 M18.3,17.8c-1.4,0-2.7-0.4-2.7-1.1c0-0.7,1.4-1.1,2.7-1.1c1.4,0,2.7,0.4,2.7,1.1
			C21,17.5,19.6,17.8,18.3,17.8"/>
		<path class="st4" d="M20.8,17c0,0.5-1.1,0.9-2.5,0.9c-1.4,0-2.5-0.4-2.5-0.9s1.1-0.9,2.5-0.9C19.7,16.1,20.8,16.5,20.8,17"/>
	</g>
	
		<linearGradient id="SVGID_00000040551179017212628480000017474192103586219681_" gradientUnits="userSpaceOnUse" x1="15.7898" y1="16.2853" x2="20.7683" y2="16.2853" gradientTransform="matrix(1 0 0 -1 0 33)">
		<stop  offset="0" style="stop-color:#FFF69A"/>
		<stop  offset="0.503" style="stop-color:#FED900"/>
		<stop  offset="1" style="stop-color:#FFF69A"/>
	</linearGradient>
	<path style="fill:url(#SVGID_00000040551179017212628480000017474192103586219681_);" d="M15.8,16.7c0,0.5,1.1,0.9,2.5,0.9l0,0
		c1.4,0,2.5-0.4,2.5-0.9l0,0c0-0.5-1.1-0.9-2.5-0.9l0,0C16.9,15.8,15.8,16.2,15.8,16.7z"/>
	<g>
		<path class="st4" d="M17.4,15c-1.4,0-2.2,0.4-2.2,0.6c0,0.2,0.9,0.6,2.2,0.6c1.4,0,2.2-0.4,2.2-0.6C19.6,15.4,18.8,15,17.4,15
			 M17.4,16.8c-1.4,0-2.7-0.4-2.7-1.1c0-0.7,1.4-1.1,2.7-1.1c1.4,0,2.7,0.4,2.7,1.1C20.1,16.4,18.8,16.8,17.4,16.8"/>
		<path class="st4" d="M17.4,14.7c-1.4,0-2.2,0.4-2.2,0.6c0,0.2,0.9,0.6,2.2,0.6c1.4,0,2.2-0.4,2.2-0.6
			C19.6,15.1,18.8,14.7,17.4,14.7 M17.4,16.5c-1.4,0-2.7-0.4-2.7-1.1c0-0.7,1.4-1.1,2.7-1.1c1.4,0,2.7,0.4,2.7,1.1
			C20.1,16.1,18.8,16.5,17.4,16.5"/>
		<path class="st4" d="M19.9,15.6c0,0.5-1.1,0.9-2.5,0.9c-1.4,0-2.5-0.4-2.5-0.9c0-0.5,1.1-0.9,2.5-0.9
			C18.8,14.8,19.9,15.2,19.9,15.6"/>
	</g>
	
		<linearGradient id="SVGID_00000001653356842141516390000002550431569839965841_" gradientUnits="userSpaceOnUse" x1="14.9097" y1="17.6422" x2="19.8877" y2="17.6422" gradientTransform="matrix(1 0 0 -1 0 33)">
		<stop  offset="0" style="stop-color:#FFF69A"/>
		<stop  offset="0.503" style="stop-color:#FED900"/>
		<stop  offset="1" style="stop-color:#FFF69A"/>
	</linearGradient>
	<path style="fill:url(#SVGID_00000001653356842141516390000002550431569839965841_);" d="M14.9,15.4c0,0.5,1.1,0.9,2.5,0.9l0,0
		c1.4,0,2.5-0.4,2.5-0.9l0,0c0-0.5-1.1-0.9-2.5-0.9l0,0C16,14.5,14.9,14.9,14.9,15.4z"/>
	<g>
		<path class="st4" d="M11.4,15.1c-1.4,0-2.2,0.4-2.2,0.6c0,0.2,0.9,0.6,2.2,0.6c1.4,0,2.2-0.4,2.2-0.6
			C13.7,15.6,12.8,15.1,11.4,15.1 M11.4,16.9c-1.4,0-2.7-0.4-2.7-1.1c0-0.7,1.4-1.1,2.7-1.1c1.4,0,2.7,0.4,2.7,1.1
			C14.2,16.5,12.8,16.9,11.4,16.9"/>
		<path class="st4" d="M11.4,14.9c-1.4,0-2.2,0.4-2.2,0.6c0,0.2,0.9,0.6,2.2,0.6c1.4,0,2.2-0.4,2.2-0.6
			C13.7,15.3,12.8,14.9,11.4,14.9 M11.4,16.6c-1.4,0-2.7-0.4-2.7-1.1c0-0.7,1.4-1.1,2.7-1.1c1.4,0,2.7,0.4,2.7,1.1
			C14.2,16.2,12.8,16.6,11.4,16.6"/>
		<path class="st4" d="M13.9,15.8c0,0.5-1.1,0.9-2.5,0.9c-1.4,0-2.5-0.4-2.5-0.9c0-0.5,1.1-0.9,2.5-0.9
			C12.8,14.9,13.9,15.3,13.9,15.8"/>
	</g>
	
		<linearGradient id="SVGID_00000030455885635349120950000014329500039535042695_" gradientUnits="userSpaceOnUse" x1="8.9334" y1="17.4982" x2="13.912" y2="17.4982" gradientTransform="matrix(1 0 0 -1 0 33)">
		<stop  offset="0" style="stop-color:#FFF69A"/>
		<stop  offset="0.503" style="stop-color:#FED900"/>
		<stop  offset="1" style="stop-color:#FFF69A"/>
	</linearGradient>
	<path style="fill:url(#SVGID_00000030455885635349120950000014329500039535042695_);" d="M8.9,15.5c0,0.5,1.1,0.9,2.5,0.9l0,0
		c1.4,0,2.5-0.4,2.5-0.9l0,0c0-0.5-1.1-0.9-2.5-0.9l0,0C10,14.6,8.9,15,8.9,15.5z"/>
	<g>
		<path class="st29" d="M26.1,16.6c0,0.9-0.7,1.7-1.7,1.7c-0.9,0-1.7-0.7-1.7-1.7c0-0.9,0.7-1.7,1.7-1.7
			C25.4,14.9,26.1,15.7,26.1,16.6"/>
		<path class="st30" d="M25.9,16.3c0,0.4-0.3,0.7-0.7,0.7c-0.4,0-0.7-0.3-0.7-0.7c0-0.4,0.3-0.7,0.7-0.7
			C25.6,15.6,25.9,15.9,25.9,16.3"/>
		<path class="st4" d="M19.4,18.6c-0.1,0.1-0.1,0.2-0.1,0.3c0.1,0.2,1,0.3,2.3-0.2c0.8-0.3,1.5-0.7,1.8-1.1c0.1-0.1,0.1-0.2,0.1-0.3
			c-0.1-0.2-1-0.3-2.3,0.2C20.4,17.8,19.7,18.3,19.4,18.6 M23.9,17.9c-0.3,0.5-1.1,0.9-2,1.3c-1.3,0.5-2.7,0.6-3-0.1
			c-0.1-0.1-0.1-0.4,0.2-0.7c0.3-0.5,1.1-0.9,2-1.3c1.3-0.5,2.7-0.6,3,0.1C24.1,17.4,24.1,17.6,23.9,17.9"/>
		<path class="st4" d="M19.3,18.4c-0.1,0.1-0.1,0.2-0.1,0.3c0.1,0.2,1,0.3,2.3-0.2c0.8-0.3,1.5-0.7,1.8-1.1c0.1-0.1,0.1-0.2,0.1-0.3
			c0-0.1-0.2-0.2-0.7-0.2c-0.5,0-1.1,0.1-1.7,0.3C20.3,17.6,19.6,18,19.3,18.4 M23.8,17.7c-0.3,0.5-1.1,0.9-2,1.3
			c-1.3,0.5-2.7,0.6-3-0.1c-0.1-0.2-0.1-0.4,0.2-0.7c0.3-0.5,1.1-0.9,2-1.3c0.7-0.2,1.3-0.4,1.8-0.4c0.8,0,1,0.3,1.1,0.5
			C24,17.1,24,17.3,23.8,17.7"/>
		<path class="st4" d="M23.8,17.3c0.2,0.5-0.8,1.2-2,1.7c-1.3,0.5-2.5,0.5-2.6,0c-0.2-0.5,0.8-1.2,2-1.7
			C22.4,16.8,23.6,16.8,23.8,17.3"/>
	</g>
	
		<linearGradient id="SVGID_00000056426092776302229270000005834906008962511276_" gradientUnits="userSpaceOnUse" x1="18.9972" y1="15.1301" x2="23.7201" y2="15.1301" gradientTransform="matrix(1 0 0 -1 0 33)">
		<stop  offset="0" style="stop-color:#FFF69A"/>
		<stop  offset="0.503" style="stop-color:#FED900"/>
		<stop  offset="1" style="stop-color:#FFF69A"/>
	</linearGradient>
	<path style="fill:url(#SVGID_00000056426092776302229270000005834906008962511276_);" d="M21.1,17c-1.3,0.5-2.2,1.2-2,1.7l0,0
		c0.2,0.5,1.3,0.5,2.6,0l0,0c1.3-0.5,2.2-1.2,2-1.7l0,0c-0.1-0.2-0.4-0.3-0.9-0.3l0,0C22.3,16.7,21.7,16.8,21.1,17z"/>
	<g>
		<path class="st32" d="M14,18.2l-1.7-1.3l0.2-2.2l2-0.9l1.7,1.3L16,17.3L14,18.2z"/>
		<path class="st17" d="M14,18.1l1.9-0.8l0.2-2.1L14.5,14l-1.9,0.8l-0.2,2.1L14,18.1z M16.1,17.4L14,18.3l-1.8-1.3l0.3-2.3l2.1-0.9
			l1.8,1.3L16.1,17.4z"/>
		<path class="st17" d="M14.1,18.1C14,18.1,14,18.1,14.1,18.1C14,18.1,14,18.1,14.1,18.1l0.4-4.2c0,0,0-0.1,0.1-0.1
			c0,0,0.1,0,0.1,0.1L14.1,18.1C14.1,18.1,14.1,18.1,14.1,18.1"/>
		<path class="st17" d="M14.1,18.1C14,18.1,14,18.1,14.1,18.1C14,18.1,14,18.1,14.1,18.1l0.4-4.2c0,0,0-0.1,0.1-0.1
			c0,0,0.1,0,0.1,0.1L14.1,18.1C14.1,18.1,14.1,18.1,14.1,18.1"/>
		<path class="st17" d="M16,17.3C15.9,17.3,15.9,17.3,16,17.3l-3.4-2.5c0,0,0-0.1,0-0.1c0,0,0.1,0,0.1,0l3.4,2.5
			C16,17.2,16,17.2,16,17.3C16,17.3,16,17.3,16,17.3"/>
		<path class="st17" d="M16.2,15.2L16.2,15.2l-3.8,1.7c0,0-0.1,0-0.1,0c0,0,0-0.1,0-0.1l3.8-1.7C16.2,15.1,16.2,15.1,16.2,15.2
			C16.2,15.2,16.2,15.2,16.2,15.2"/>
		<path class="st32" d="M14.1,17.1l-0.9-0.7l0.1-1.1l1-0.5l0.9,0.7l-0.1,1.1L14.1,17.1z"/>
		<path class="st17" d="M14.1,17.1l1-0.4l0.1-1.1l-0.9-0.6l-1,0.4l-0.1,1.1L14.1,17.1z M15.2,16.7l-1.1,0.5l-1-0.7l0.1-1.2l1.1-0.5
			l1,0.7L15.2,16.7z"/>
		<path class="st0" d="M5.1,16.1l1.5,11.4l17.2,3.2v-12L5.1,16.1z"/>
		<path class="st1" d="M7.1,27.1l16.2,3V19.2L5.7,16.7L7.1,27.1z M23.8,31.2C23.8,31.2,23.8,31.2,23.8,31.2L6.5,28
			c-0.2,0-0.4-0.2-0.4-0.4L4.6,16.2c0-0.2,0-0.3,0.1-0.4c0.1-0.1,0.3-0.2,0.4-0.1l18.7,2.6c0.2,0,0.4,0.2,0.4,0.5v12
			c0,0.1-0.1,0.3-0.2,0.4C24,31.1,23.9,31.2,23.8,31.2"/>
		<path class="st0" d="M34.2,12.3l-0.6,11.5l-9.8,6.9v-12L34.2,12.3z"/>
		<path class="st1" d="M24.3,19v10.7l8.8-6.2l0.5-10.3L24.3,19z M23.8,31.2c-0.1,0-0.2,0-0.2-0.1c-0.2-0.1-0.3-0.3-0.3-0.4v-12
			c0-0.2,0.1-0.3,0.2-0.4L34,11.9c0.2-0.1,0.4-0.1,0.5,0c0.2,0.1,0.3,0.3,0.2,0.5l-0.6,11.5c0,0.2-0.1,0.3-0.2,0.4l-9.8,6.9
			C24,31.2,23.9,31.2,23.8,31.2"/>
		<path class="st9" d="M7.8,17.2c-0.5,0-0.9-0.3-0.9-0.8c0-0.5,0.4-0.9,0.8-0.9c0.5,0,0.9,0.4,0.9,0.8C8.6,16.7,8.3,17.1,7.8,17.2"
			/>
		<path class="st9" d="M7.9,18.9C7.5,18.9,7,18.6,7,18.1c0-0.5,0.3-0.9,0.8-0.9c0.5,0,0.9,0.3,0.9,0.8C8.7,18.4,8.4,18.8,7.9,18.9"
			/>
		<path class="st9" d="M8.2,20.6c-0.5,0.1-0.9-0.2-1-0.7c-0.1-0.5,0.3-0.9,0.7-1c0.5-0.1,0.9,0.3,1,0.7C9,20.1,8.7,20.5,8.2,20.6"/>
		<path class="st9" d="M8.7,22.3c-0.4,0.2-1-0.1-1.1-0.6c-0.1-0.5,0.2-1,0.6-1.1c0.5-0.1,0.9,0.2,1,0.6C9.4,21.6,9.1,22.1,8.7,22.3"
			/>
		<path class="st9" d="M9.4,23.8c-0.4,0.3-1,0.1-1.2-0.4c-0.2-0.5,0-1,0.5-1.2c0.5-0.1,0.9,0.1,1.1,0.5C9.9,23.1,9.8,23.6,9.4,23.8"
			/>
		<path class="st9" d="M10.5,25.1c-0.1,0.2-0.3,0.3-0.6,0.3c-0.2,0-0.5-0.1-0.7-0.3c-0.4-0.4-0.3-1,0.1-1.3c0.4-0.2,0.9-0.1,1.2,0.1
			C10.8,24.3,10.8,24.7,10.5,25.1"/>
		<path class="st9" d="M12.1,25.7c0,0.2-0.1,0.4-0.3,0.6c-0.2,0.1-0.5,0.2-0.8,0.1c-0.3-0.1-0.5-0.3-0.6-0.5c-0.1-0.2,0-0.5,0.1-0.7
			c0.3-0.4,0.7-0.5,1-0.4C11.9,24.8,12.1,25.2,12.1,25.7"/>
		<path class="st9" d="M13.8,25.2c0.1,0.2,0.2,0.4,0.1,0.7c-0.1,0.2-0.3,0.5-0.6,0.5c-0.3,0.1-0.6,0-0.8-0.1
			c-0.2-0.1-0.3-0.4-0.3-0.6c0-0.2,0.1-0.4,0.2-0.6c0.1-0.2,0.2-0.3,0.4-0.3c0.1,0,0.3,0,0.5,0.1C13.4,24.9,13.6,25,13.8,25.2"/>
		<path class="st9" d="M14.9,23.9c0.4,0.2,0.6,0.8,0.2,1.3c-0.2,0.2-0.4,0.4-0.7,0.4c-0.2,0-0.5-0.1-0.6-0.3
			c-0.1-0.2-0.2-0.4-0.2-0.6c0-0.2,0-0.4,0.2-0.5C14,23.8,14.4,23.7,14.9,23.9"/>
		<path class="st9" d="M15.5,22.3c0.5,0.1,0.7,0.6,0.5,1.1c-0.2,0.5-0.8,0.7-1.2,0.5c-0.4-0.2-0.6-0.7-0.4-1.1
			C14.6,22.4,15.1,22.1,15.5,22.3"/>
		<path class="st9" d="M15.9,20.6c0.5,0.1,0.8,0.5,0.7,1c-0.1,0.5-0.6,0.8-1.1,0.6c-0.5-0.1-0.7-0.6-0.6-1
			C15,20.8,15.4,20.5,15.9,20.6"/>
		<path class="st9" d="M16.1,18.9c0.5,0,0.8,0.5,0.8,1c-0.1,0.5-0.5,0.8-1,0.7c-0.5-0.1-0.8-0.5-0.7-1
			C15.2,19.2,15.6,18.8,16.1,18.9"/>
		<path class="st9" d="M16.2,17.1c0.5,0,0.9,0.4,0.8,0.9c0,0.5-0.4,0.9-0.9,0.8c-0.5,0-0.8-0.5-0.8-0.9
			C15.3,17.5,15.7,17.1,16.2,17.1"/>
		<path class="st9" d="M12.6,17.2c-0.5,0.1-0.9-0.3-1-0.8c0-0.5,0.3-1,0.8-0.9c0.5,0,0.9,0.4,0.9,0.8C13.4,16.7,13.1,17.1,12.6,17.2
			"/>
		<path class="st9" d="M13.1,18.9c-0.4,0.2-1-0.1-1.1-0.6c-0.1-0.5,0.2-1,0.6-1.1c0.5-0.1,0.9,0.2,1,0.6
			C13.7,18.2,13.5,18.7,13.1,18.9"/>
		<path class="st9" d="M14,20.4c-0.3,0.3-1,0.3-1.3-0.3c-0.3-0.5-0.1-1.1,0.3-1.2c0.4-0.2,0.9,0,1.1,0.3C14.4,19.6,14.4,20,14,20.4"
			/>
		<path class="st9" d="M15.5,21.3c-0.1,0.5-0.7,0.7-1.3,0.3c-0.5-0.3-0.6-1-0.2-1.3c0.4-0.3,0.8-0.3,1.1-0.1
			C15.5,20.4,15.6,20.9,15.5,21.3"/>
		<path class="st9" d="M17.2,21.6c0,0.5-0.4,0.9-1,0.8c-0.6-0.1-0.9-0.6-0.7-1.1c0.2-0.4,0.6-0.7,1-0.6
			C16.8,20.8,17.2,21.1,17.2,21.6"/>
		<path class="st9" d="M18.9,21.1c0.1,0.2,0.1,0.4,0,0.7c-0.1,0.2-0.3,0.4-0.6,0.5c-0.6,0.2-1.1-0.2-1.1-0.7c0-0.5,0.3-0.9,0.6-1
			c0.2,0,0.4,0,0.5,0.1C18.6,20.8,18.8,20.9,18.9,21.1"/>
		<path class="st9" d="M20.1,19.8c0.4,0.2,0.5,0.8,0.1,1.3c-0.2,0.2-0.5,0.3-0.7,0.3c-0.2,0-0.5-0.1-0.6-0.3
			c-0.1-0.2-0.2-0.4-0.1-0.6c0-0.2,0.1-0.4,0.2-0.5C19.2,19.7,19.7,19.6,20.1,19.8"/>
		<path class="st9" d="M20.7,18.2c0.5,0.1,0.7,0.6,0.5,1.1c-0.2,0.5-0.8,0.7-1.2,0.5c-0.4-0.3-0.6-0.7-0.4-1.1
			C19.8,18.4,20.3,18.1,20.7,18.2"/>
		<path class="st9" d="M21,16.4c0.5,0,0.9,0.5,0.8,1c-0.1,0.5-0.6,0.9-1,0.8c-0.5-0.1-0.7-0.5-0.7-1C20.1,16.8,20.5,16.5,21,16.4"/>
		<path class="st4" d="M25.4,29.2c-1.4,0-2.2,0.4-2.2,0.6c0,0.2,0.9,0.6,2.2,0.6c1.4,0,2.2-0.4,2.2-0.6
			C27.7,29.6,26.8,29.2,25.4,29.2 M25.4,30.9c-1.4,0-2.7-0.4-2.7-1.1c0-0.7,1.4-1.1,2.7-1.1c1.4,0,2.7,0.4,2.7,1.1
			C28.2,30.5,26.8,30.9,25.4,30.9"/>
		<path class="st4" d="M25.4,28.9c-1.4,0-2.2,0.4-2.2,0.6c0,0.2,0.9,0.6,2.2,0.6c1.4,0,2.2-0.4,2.2-0.6
			C27.7,29.3,26.8,28.9,25.4,28.9 M25.4,30.7c-1.4,0-2.7-0.4-2.7-1.1c0-0.7,1.4-1.1,2.7-1.1c1.4,0,2.7,0.4,2.7,1.1
			C28.2,30.3,26.8,30.7,25.4,30.7"/>
		<path class="st4" d="M27.9,29.8c0,0.5-1.1,0.9-2.5,0.9c-1.4,0-2.5-0.4-2.5-0.9c0-0.5,1.1-0.9,2.5-0.9
			C26.8,28.9,27.9,29.3,27.9,29.8"/>
	</g>
	
		<linearGradient id="SVGID_00000106840738268881960800000005828932530232778671_" gradientUnits="userSpaceOnUse" x1="22.9492" y1="3.4717" x2="27.9277" y2="3.4717" gradientTransform="matrix(1 0 0 -1 0 33)">
		<stop  offset="0" style="stop-color:#FFF69A"/>
		<stop  offset="0.503" style="stop-color:#FED900"/>
		<stop  offset="1" style="stop-color:#FFF69A"/>
	</linearGradient>
	<path style="fill:url(#SVGID_00000106840738268881960800000005828932530232778671_);" d="M22.9,29.5c0,0.5,1.1,0.9,2.5,0.9l0,0
		c1.4,0,2.5-0.4,2.5-0.9l0,0c0-0.5-1.1-0.9-2.5-0.9l0,0C24.1,28.6,22.9,29,22.9,29.5z"/>
	<g>
		<path class="st4" d="M28.6,27.8c-1.4-0.3-2.3-0.1-2.3,0.1c-0.1,0.2,0.7,0.8,2,1.2c1.3,0.3,2.3,0.1,2.3-0.1
			C30.7,28.8,29.9,28.2,28.6,27.8 M28.1,29.6c-1.3-0.3-2.6-1-2.4-1.8c0.2-0.7,1.6-0.8,2.9-0.4c1.3,0.3,2.6,1,2.4,1.8
			C30.9,29.8,29.5,29.9,28.1,29.6"/>
		<path class="st4" d="M28.6,27.6c-1.3-0.3-2.3-0.1-2.3,0.1c-0.1,0.2,0.7,0.8,2,1.2c1.4,0.3,2.3,0.1,2.3-0.1
			C30.7,28.5,30,27.9,28.6,27.6 M28.2,29.3c-1.3-0.3-2.6-1-2.4-1.8c0.2-0.7,1.6-0.8,2.9-0.4c1.3,0.3,2.6,1,2.4,1.8
			C31,29.6,29.5,29.6,28.2,29.3"/>
		<path class="st4" d="M30.8,29.1c-0.1,0.5-1.3,0.6-2.6,0.2c-1.3-0.3-2.3-1-2.2-1.5c0.1-0.5,1.3-0.6,2.6-0.2
			C30,27.9,31,28.6,30.8,29.1"/>
	</g>
	
		<linearGradient id="SVGID_00000026860257124330715980000015029659781656831367_" gradientUnits="userSpaceOnUse" x1="26.0684" y1="4.8092" x2="30.9159" y2="4.8092" gradientTransform="matrix(1 0 0 -1 0 33)">
		<stop  offset="0" style="stop-color:#FFF69A"/>
		<stop  offset="0.503" style="stop-color:#FED900"/>
		<stop  offset="1" style="stop-color:#FFF69A"/>
	</linearGradient>
	<path style="fill:url(#SVGID_00000026860257124330715980000015029659781656831367_);" d="M26.1,27.6c-0.1,0.5,0.9,1.1,2.2,1.5l0,0
		c1.3,0.3,2.5,0.2,2.6-0.2l0,0c0.1-0.5-0.9-1.1-2.2-1.5l0,0c-0.5-0.1-1-0.2-1.4-0.2l0,0C26.6,27.1,26.2,27.3,26.1,27.6z"/>
	<g>
		<path class="st4" d="M19.3,29.6c-1.4,0-2.3,0.4-2.3,0.7c0,0.2,0.9,0.7,2.3,0.7c1.4,0,2.3-0.4,2.3-0.7C21.6,30,20.8,29.6,19.3,29.6
			 M19.3,31.4c-1.4,0-2.8-0.4-2.8-1.2c0-0.8,1.4-1.2,2.8-1.2c1.4,0,2.8,0.4,2.8,1.2C22.1,31,20.7,31.4,19.3,31.4"/>
		<path class="st4" d="M19.3,29.3c-1.4,0-2.3,0.4-2.3,0.7c0,0.2,0.9,0.7,2.3,0.7c1.4,0,2.3-0.4,2.3-0.7
			C21.6,29.7,20.8,29.3,19.3,29.3 M19.3,31.1c-1.4,0-2.8-0.4-2.8-1.2c0-0.8,1.4-1.2,2.8-1.2c1.4,0,2.8,0.4,2.8,1.2
			C22.1,30.7,20.7,31.1,19.3,31.1"/>
		<path class="st4" d="M21.9,30.2c0,0.5-1.1,0.9-2.6,0.9c-1.4,0-2.6-0.4-2.6-0.9c0-0.5,1.1-0.9,2.6-0.9
			C20.7,29.3,21.9,29.7,21.9,30.2"/>
	</g>
	
		<linearGradient id="SVGID_00000087403524988581352060000014546592607558349725_" gradientUnits="userSpaceOnUse" x1="16.7849" y1="3.0552" x2="21.8927" y2="3.0552" gradientTransform="matrix(1 0 0 -1 0 33)">
		<stop  offset="0" style="stop-color:#FFF69A"/>
		<stop  offset="0.503" style="stop-color:#FED900"/>
		<stop  offset="1" style="stop-color:#FFF69A"/>
	</linearGradient>
	<path style="fill:url(#SVGID_00000087403524988581352060000014546592607558349725_);" d="M16.8,29.9c0,0.5,1.1,0.9,2.6,0.9l0,0
		c1.4,0,2.6-0.4,2.6-0.9l0,0c0-0.5-1.1-0.9-2.6-0.9l0,0C17.9,29,16.8,29.4,16.8,29.9z"/>
	<g>
		<path class="st4" d="M19.1,28.8c-1.4,0-2.3,0.4-2.3,0.7c0,0.2,0.9,0.7,2.3,0.7c1.4,0,2.3-0.4,2.3-0.7
			C21.4,29.2,20.6,28.8,19.1,28.8 M19.1,30.6c-1.4,0-2.8-0.4-2.8-1.2c0-0.8,1.4-1.2,2.8-1.2c1.4,0,2.8,0.4,2.8,1.2
			C22,30.2,20.5,30.6,19.1,30.6"/>
		<path class="st4" d="M19.1,28.5c-1.4,0-2.3,0.4-2.3,0.7c0,0.2,0.9,0.7,2.3,0.7c1.4,0,2.3-0.4,2.3-0.7
			C21.4,28.9,20.6,28.5,19.1,28.5 M19.1,30.3c-1.4,0-2.8-0.4-2.8-1.2c0-0.8,1.4-1.2,2.8-1.2c1.4,0,2.8,0.4,2.8,1.2
			C22,29.9,20.5,30.3,19.1,30.3"/>
		<path class="st4" d="M21.7,29.4c0,0.5-1.1,0.9-2.6,0.9c-1.4,0-2.6-0.4-2.6-0.9c0-0.5,1.1-0.9,2.6-0.9
			C20.6,28.5,21.7,28.9,21.7,29.4"/>
	</g>
	
		<linearGradient id="SVGID_00000013192870405267104030000011308783215853865859_" gradientUnits="userSpaceOnUse" x1="16.5912" y1="3.8668" x2="21.7" y2="3.8668" gradientTransform="matrix(1 0 0 -1 0 33)">
		<stop  offset="0" style="stop-color:#FFF69A"/>
		<stop  offset="0.503" style="stop-color:#FED900"/>
		<stop  offset="1" style="stop-color:#FFF69A"/>
	</linearGradient>
	<path style="fill:url(#SVGID_00000013192870405267104030000011308783215853865859_);" d="M16.6,29.1c0,0.5,1.1,0.9,2.6,0.9l0,0
		c1.4,0,2.6-0.4,2.6-0.9l0,0c0-0.5-1.1-0.9-2.6-0.9l0,0C17.7,28.2,16.6,28.6,16.6,29.1z"/>
	<g>
		<path class="st4" d="M23.2,30.2c-1.4,0-2.3,0.4-2.3,0.7c0,0.2,0.9,0.7,2.3,0.7c1.4,0,2.3-0.4,2.3-0.7
			C25.5,30.6,24.6,30.2,23.2,30.2 M23.2,32c-1.4,0-2.8-0.4-2.8-1.2c0-0.8,1.4-1.2,2.8-1.2c1.4,0,2.8,0.4,2.8,1.2
			C26,31.6,24.6,32,23.2,32"/>
		<path class="st4" d="M23.2,29.9c-1.4,0-2.3,0.4-2.3,0.7c0,0.2,0.9,0.7,2.3,0.7c1.4,0,2.3-0.4,2.3-0.7
			C25.5,30.3,24.6,29.9,23.2,29.9 M23.2,31.7c-1.4,0-2.8-0.4-2.8-1.2c0-0.8,1.4-1.2,2.8-1.2c1.4,0,2.8,0.4,2.8,1.2
			C26,31.3,24.6,31.7,23.2,31.7"/>
		<path class="st4" d="M25.7,30.8c0,0.5-1.1,0.9-2.6,0.9c-1.4,0-2.6-0.4-2.6-0.9c0-0.5,1.1-0.9,2.6-0.9
			C24.6,29.9,25.7,30.3,25.7,30.8"/>
	</g>
	
		<linearGradient id="SVGID_00000109746923849885891500000002120353676746180784_" gradientUnits="userSpaceOnUse" x1="20.6248" y1="2.4608" x2="25.7331" y2="2.4608" gradientTransform="matrix(1 0 0 -1 0 33)">
		<stop  offset="0" style="stop-color:#FFF69A"/>
		<stop  offset="0.503" style="stop-color:#FED900"/>
		<stop  offset="1" style="stop-color:#FFF69A"/>
	</linearGradient>
	<path style="fill:url(#SVGID_00000109746923849885891500000002120353676746180784_);" d="M20.6,30.5c0,0.5,1.1,0.9,2.6,0.9l0,0
		c1.4,0,2.6-0.4,2.6-0.9l0,0c0-0.5-1.1-0.9-2.6-0.9l0,0C21.8,29.6,20.6,30,20.6,30.5z"/>
	<g>
		<path class="st4" d="M21.7,27.8c-0.1,0-0.2,0-0.3,0.1c-0.1,0.2,0.4,1,1.5,1.8c0.7,0.5,1.5,0.8,2,0.8c0.1,0,0.2,0,0.3-0.1
			c0.1-0.2-0.4-1-1.6-1.8C22.9,28.1,22.1,27.8,21.7,27.8 M24.9,31c-0.6,0-1.5-0.3-2.3-0.9c-1.2-0.8-2.1-1.9-1.7-2.5
			c0.1-0.1,0.3-0.3,0.7-0.3c0.6,0,1.5,0.3,2.3,0.9c1.2,0.8,2.1,1.9,1.7,2.5C25.5,30.9,25.3,31,24.9,31"/>
		<path class="st4" d="M21.8,27.6c-0.1,0-0.2,0-0.3,0.1c-0.1,0.2,0.4,1,1.6,1.8c0.7,0.5,1.5,0.8,2,0.8c0.1,0,0.2,0,0.3-0.1
			c0-0.1,0-0.3-0.3-0.7c-0.3-0.4-0.7-0.8-1.3-1.2C23.1,27.9,22.3,27.6,21.8,27.6 M25.1,30.8c-0.6,0-1.5-0.3-2.3-0.9
			c-1.2-0.8-2.1-1.9-1.7-2.5c0.1-0.1,0.3-0.3,0.7-0.3c0.6,0,1.5,0.3,2.3,0.9c0.6,0.4,1.1,0.9,1.4,1.3c0.5,0.6,0.4,1,0.3,1.2
			C25.7,30.6,25.5,30.8,25.1,30.8"/>
		<path class="st4" d="M25.4,30.6c-0.3,0.4-1.5,0.1-2.6-0.7c-1.2-0.8-1.9-1.8-1.6-2.2c0.3-0.4,1.5-0.1,2.6,0.7
			C25,29.2,25.7,30.2,25.4,30.6"/>
	</g>
	
		<linearGradient id="SVGID_00000100348106060790902190000017578922271794098622_" gradientUnits="userSpaceOnUse" x1="21.2803" y1="4.0786" x2="25.6434" y2="4.0786" gradientTransform="matrix(1 0 0 -1 0 33)">
		<stop  offset="0" style="stop-color:#FFF69A"/>
		<stop  offset="0.503" style="stop-color:#FED900"/>
		<stop  offset="1" style="stop-color:#FFF69A"/>
	</linearGradient>
	<path style="fill:url(#SVGID_00000100348106060790902190000017578922271794098622_);" d="M21.3,27.5c-0.3,0.4,0.4,1.4,1.6,2.2l0,0
		c1.2,0.8,2.3,1.1,2.6,0.7l0,0c0.3-0.4-0.4-1.4-1.6-2.2l0,0c-0.8-0.5-1.6-0.9-2.1-0.9l0,0C21.6,27.3,21.4,27.4,21.3,27.5z"/>
	<g>
		<path class="st9" d="M31.6,14.9c-0.5,0-0.9-0.4-0.9-0.9c0-0.5,0.4-0.9,0.9-0.9c0.5,0,0.9,0.4,0.9,0.9
			C32.5,14.6,32.1,14.9,31.6,14.9"/>
		<path class="st9" d="M31.6,16.7c-0.5,0-0.9-0.4-0.9-0.9c0-0.5,0.4-0.9,0.9-0.9c0.5,0,0.9,0.4,0.9,0.9
			C32.5,16.3,32.1,16.7,31.6,16.7"/>
		<path class="st9" d="M31.6,18.5c-0.5,0-0.9-0.4-0.9-0.9c0-0.5,0.4-0.9,0.9-0.9c0.5,0,0.9,0.4,0.9,0.9
			C32.5,18.1,32.1,18.5,31.6,18.5"/>
		<path class="st9" d="M31.6,20.2c-0.5,0-0.9-0.4-0.9-0.9c0-0.5,0.4-0.9,0.9-0.9c0.5,0,0.9,0.4,0.9,0.9
			C32.5,19.8,32.1,20.2,31.6,20.2"/>
		<path class="st9" d="M31.6,22c-0.5,0-0.9-0.4-0.9-0.9c0-0.5,0.4-0.9,0.9-0.9c0.5,0,0.9,0.4,0.9,0.9C32.5,21.6,32.1,22,31.6,22"/>
		<path class="st9" d="M31.6,23.7c-0.5,0-0.9-0.4-0.9-0.9c0-0.5,0.4-0.9,0.9-0.9c0.5,0,0.9,0.4,0.9,0.9
			C32.5,23.3,32.1,23.7,31.6,23.7"/>
		<path class="st39" d="M37.7,19.3c-1.7,0.1-1.8,0.1-1.8,1.8c-0.1-1.7-0.1-1.8-1.8-1.8c1.7-0.1,1.8-0.1,1.8-1.8
			C36,19.2,36,19.2,37.7,19.3"/>
		<path class="st39" d="M14.1,9.9c-1.7,0.1-1.8,0.1-1.8,1.8c-0.1-1.7-0.1-1.8-1.8-1.8c1.7-0.1,1.8-0.1,1.8-1.8
			C12.4,9.8,12.4,9.8,14.1,9.9"/>
		<path class="st39" d="M42.7,14.5c-4.2,0.1-4.3,0.3-4.4,4.4c-0.1-4.2-0.3-4.3-4.4-4.4c4.2-0.1,4.3-0.3,4.4-4.4
			C38.4,14.2,38.5,14.3,42.7,14.5"/>
		<path class="st39" d="M8,23.3c-3.8,0.1-3.9,0.2-4,4c-0.1-3.8-0.2-3.9-4-4c3.8-0.1,3.9-0.2,4-4C4.1,23.1,4.2,23.2,8,23.3"/>
	</g>
</g>
</svg>
